# xmcd
#
# Track frame offsets:
#	150
#	17471
#	36431
#	55750
#	81795
#	97100
#	118700
#	135673
#	153197
#	170240
#	184439
#
# Disc length: 2704 seconds
#
# Revision: 1
# Processed by: cddbd v1.5.1PL2 Copyright (c) Steve Scherf et al.
# Submitted via: audiograbber 1.83.01
#
DISCID=920a8e0b
DTITLE=Andrew Collins - Little Widgets
DYEAR=2005
DGENRE=Country
TTITLE0=Little Widgets
TTITLE1=Sunlight at Midnight
TTITLE2=Pendleton Murray
TTITLE3=Pleasantville
TTITLE4=Prelude From Cello Suite No 3
TTITLE5=Blue Ming
TTITLE6=Dickering Al
TTITLE7=The Yellow Barber
TTITLE8=Old Republic
TTITLE9=Bottom's Dream
TTITLE10=Riding Off Into The Sunset
EXTD=
EXTT0=
EXTT1=
EXTT2=
EXTT3=
EXTT4=
EXTT5=
EXTT6=
EXTT7=
EXTT8=
EXTT9=
EXTT10=
PLAYORDER=
